ffmpeg started on 2025-07-19 at 14:25:48
Report written to "D:\Convert\FFMetrics\reports\ssim_report-6.txt"
Log level: 32
Command line:
ffmpeg -hide_banner -nostdin -i "G:\\\xc0\xed\xe8\xec\xe5\\\xce\xed\xe3\xee\xe8\xed\xe3\xe8\\!_07_\xcb\xe5\xf2\xee_2017\\\xd1\xe5\xec\xfc - \xe2\xe5\xf0\xed\xee, \xf2\xf0\xe8 - \xed\xe5\xe2\xe5\xf0\xed\xee\\[AniDub]_Nana_Maru_San_Batsu_[10]_[720p_x264_Aac]_[MVO]_HEVC.mkv" -i "G:\\\xc0\xed\xe8\xec\xe5\\\xce\xed\xe3\xee\xe8\xed\xe3\xe8\\!_07_\xcb\xe5\xf2\xee_2017\\\xd1\xe5\xec\xfc - \xe2\xe5\xf0\xed\xee, \xf2\xf0\xe8 - \xed\xe5\xe2\xe5\xf0\xed\xee\\[AniDub]_Nana_Maru_San_Batsu_[10]_[720p_x264_Aac]_[MVO].mp4" -lavfi "[0:v]settb=AVTB,setpts=PTS-STARTPTS,format=pix_fmts=yuv420p10,fps=24000/1001,scale=1280:720:flags=bicubic[main];[1:v]settb=AVTB,setpts=PTS-STARTPTS,format=pix_fmts=yuv420p,fps=24000/1001,scale=1280:720:flags=bicubic[ref];[main][ref]ssim=eof_action=endall:stats_file='D\\:/Convert/FFMetrics/logs/ssim_logfile-6.txt'" -f null -
Input #0, matroska,webm, from 'G:\Аниме\Онгоинги\!_07_Лето_2017\Семь - верно, три - неверно\[AniDub]_Nana_Maru_San_Batsu_[10]_[720p_x264_Aac]_[MVO]_HEVC.mkv':
  Metadata:
    COMPATIBLE_BRANDS: isomavc1
    MAJOR_BRAND     : isom
    MINOR_VERSION   : 1
    ENCODER         : Lavf61.7.100
  Duration: 00:23:01.27, start: -0.021000, bitrate: 602 kb/s
  Stream #0:0: Video: hevc (Main 10), yuv420p10le(tv, bt709, progressive), 1280x720 [SAR 1:1 DAR 16:9], 23.98 fps, 23.98 tbr, 1k tbn (default)
      Metadata:
        HANDLER_NAME    : GPAC ISO Video Handler
        VENDOR_ID       : [0][0][0][0]
        ENCODER         : Lavc61.19.100 libx265
        BPS             : 405317
        DURATION        : 00:23:00.087708333
        NUMBER_OF_FRAMES: 33089
        NUMBER_OF_BYTES : 69921720
        _STATISTICS_WRITING_APP: mkvpropedit v66.0.0 ('Josie') 64-bit
        _STATISTICS_WRITING_DATE_UTC: 2025-07-19 10:25:45
        _STATISTICS_TAGS: BPS DURATION NUMBER_OF_FRAMES NUMBER_OF_BYTES
  Stream #0:1(eng): Audio: aac (LC), 48000 Hz, stereo, fltp (default)
      Metadata:
        HANDLER_NAME    : GPAC ISO Audio Handler
        VENDOR_ID       : [0][0][0][0]
        ENCODER         : Lavc61.19.100 aac
        BPS             : 193934
        DURATION        : 00:23:01.248000000
        NUMBER_OF_FRAMES: 64747
        NUMBER_OF_BYTES : 33483879
        _STATISTICS_WRITING_APP: mkvpropedit v66.0.0 ('Josie') 64-bit
        _STATISTICS_WRITING_DATE_UTC: 2025-07-19 10:25:45
        _STATISTICS_TAGS: BPS DURATION NUMBER_OF_FRAMES NUMBER_OF_BYTES
Input #1, mov,mp4,m4a,3gp,3g2,mj2, from 'G:\Аниме\Онгоинги\!_07_Лето_2017\Семь - верно, три - неверно\[AniDub]_Nana_Maru_San_Batsu_[10]_[720p_x264_Aac]_[MVO].mp4':
  Metadata:
    major_brand     : isom
    minor_version   : 1
    compatible_brands: isomavc1
    creation_time   : 2018-05-16T20:59:35.000000Z
    encoder         : Yamb 2.1.0.0 [http://yamb.unite-video.com]
  Duration: 00:23:01.25, start: 0.000000, bitrate: 1966 kb/s
  Stream #1:0[0x1](und): Video: h264 (High) (avc1 / 0x31637661), yuv420p(progressive), 1280x720 [SAR 1:1 DAR 16:9], 1771 kb/s, 23.98 fps, 23.98 tbr, 24k tbn (default)
      Metadata:
        creation_time   : 2018-05-16T20:59:35.000000Z
        handler_name    : GPAC ISO Video Handler
        vendor_id       : [0][0][0][0]
  Stream #1:1[0x2](eng): Audio: aac (LC) (mp4a / 0x6134706D), 48000 Hz, stereo, fltp, 192 kb/s (default)
      Metadata:
        creation_time   : 2018-05-16T20:59:36.000000Z
        handler_name    : GPAC ISO Audio Handler
        vendor_id       : [0][0][0][0]
Stream mapping:
  Stream #0:0 (hevc) -> settb:default
  Stream #1:0 (h264) -> settb:default
  ssim:default -> Stream #0:0 (wrapped_avframe)
  Stream #0:1 -> #0:1 (aac (native) -> pcm_s16le (native))
[swscaler @ 000002036aaa1d00] No accelerated colorspace conversion found from yuv420p to bgr48le.
[swscaler @ 000002036abeec00] No accelerated colorspace conversion found from yuv420p to bgr48le.
[swscaler @ 000002036ad62740] No accelerated colorspace conversion found from yuv420p to bgr48le.
[swscaler @ 000002036896b700] No accelerated colorspace conversion found from yuv420p to bgr48le.
[swscaler @ 00000203689856c0] No accelerated colorspace conversion found from yuv420p to bgr48le.
[swscaler @ 000002036b12e780] No accelerated colorspace conversion found from yuv420p to bgr48le.
[swscaler @ 000002036b18e740] No accelerated colorspace conversion found from yuv420p to bgr48le.
[swscaler @ 000002036b1ea040] No accelerated colorspace conversion found from yuv420p to bgr48le.
[swscaler @ 000002036b245040] No accelerated colorspace conversion found from yuv420p to bgr48le.
[swscaler @ 000002036b287000] No accelerated colorspace conversion found from yuv420p to bgr48le.
[swscaler @ 000002036b2e6040] No accelerated colorspace conversion found from yuv420p to bgr48le.
[swscaler @ 0000020369474300] No accelerated colorspace conversion found from yuv420p to bgr48le.
[swscaler @ 000002036ee44040] No accelerated colorspace conversion found from yuv420p to bgr48le.
[swscaler @ 000002036eec9040] No accelerated colorspace conversion found from yuv420p to bgr48le.
[swscaler @ 000002036ef71040] No accelerated colorspace conversion found from yuv420p to bgr48le.
[swscaler @ 000002036efed040] No accelerated colorspace conversion found from yuv420p to bgr48le.
Output #0, null, to 'pipe:':
  Metadata:
    COMPATIBLE_BRANDS: isomavc1
    MAJOR_BRAND     : isom
    MINOR_VERSION   : 1
    encoder         : Lavf61.7.100
  Stream #0:0: Video: wrapped_avframe, yuv420p10le(tv, bt709, progressive), 1280x720 [SAR 1:1 DAR 16:9], q=2-31, 200 kb/s, 23.98 fps, 23.98 tbn
      Metadata:
        encoder         : Lavc61.19.100 wrapped_avframe
  Stream #0:1(eng): Audio: pcm_s16le, 48000 Hz, stereo, s16, 1536 kb/s (default)
      Metadata:
        HANDLER_NAME    : GPAC ISO Audio Handler
        VENDOR_ID       : [0][0][0][0]
        _STATISTICS_TAGS: BPS DURATION NUMBER_OF_FRAMES NUMBER_OF_BYTES
        BPS             : 193934
        DURATION        : 00:23:01.248000000
        NUMBER_OF_FRAMES: 64747
        NUMBER_OF_BYTES : 33483879
        _STATISTICS_WRITING_APP: mkvpropedit v66.0.0 ('Josie') 64-bit
        _STATISTICS_WRITING_DATE_UTC: 2025-07-19 10:25:45
        encoder         : Lavc61.19.100 pcm_s16le
frame=   82 fps=0.0 q=-0.0 size=N/A time=00:00:03.42 bitrate=N/A speed=6.66x    frame=  171 fps=168 q=-0.0 size=N/A time=00:00:07.13 bitrate=N/A speed=6.99x    frame=  270 fps=175 q=-0.0 size=N/A time=00:00:11.26 bitrate=N/A speed= 7.3x    frame=  365 fps=177 q=-0.0 size=N/A time=00:00:15.22 bitrate=N/A speed=7.37x    frame=  457 fps=177 q=-0.0 size=N/A time=00:00:19.06 bitrate=N/A speed=7.37x    frame=  547 fps=176 q=-0.0 size=N/A time=00:00:22.81 bitrate=N/A speed=7.33x    frame=  650 fps=180 q=-0.0 size=N/A time=00:00:27.11 bitrate=N/A speed=7.49x    frame=  743 fps=180 q=-0.0 size=N/A time=00:00:30.98 bitrate=N/A speed=7.49x    frame=  844 fps=182 q=-0.0 size=N/A time=00:00:35.20 bitrate=N/A speed=7.57x    frame=  938 fps=182 q=-0.0 size=N/A time=00:00:39.12 bitrate=N/A speed=7.58x    frame= 1031 fps=181 q=-0.0 size=N/A time=00:00:43.00 bitrate=N/A speed=7.56x    frame= 1128 fps=182 q=-0.0 size=N/A time=00:00:47.04 bitrate=N/A speed=7.59x    frame= 1222 fps=182 q=-0.0 size=N/A time=00:00:50.96 bitrate=N/A speed=7.58x    frame= 1314 fps=182 q=-0.0 size=N/A time=00:00:54.80 bitrate=N/A speed=7.57x    frame= 1405 fps=181 q=-0.0 size=N/A time=00:00:58.60 bitrate=N/A speed=7.55x    frame= 1498 fps=181 q=-0.0 size=N/A time=00:01:02.47 bitrate=N/A speed=7.56x    frame= 1593 fps=181 q=-0.0 size=N/A time=00:01:06.44 bitrate=N/A speed=7.55x    frame= 1685 fps=181 q=-0.0 size=N/A time=00:01:10.27 bitrate=N/A speed=7.55x    frame= 1782 fps=181 q=-0.0 size=N/A time=00:01:14.32 bitrate=N/A speed=7.56x    frame= 1872 fps=181 q=-0.0 size=N/A time=00:01:18.07 bitrate=N/A speed=7.55x    frame= 1973 fps=182 q=-0.0 size=N/A time=00:01:22.29 bitrate=N/A speed=7.58x    frame= 2059 fps=181 q=-0.0 size=N/A time=00:01:25.87 bitrate=N/A speed=7.56x    frame= 2162 fps=182 q=-0.0 size=N/A time=00:01:30.17 bitrate=N/A speed=7.59x    frame= 2253 fps=182 q=-0.0 size=N/A time=00:01:33.96 bitrate=N/A speed=7.58x    frame= 2349 fps=182 q=-0.0 size=N/A time=00:01:37.97 bitrate=N/A speed=7.58x    frame= 2442 fps=182 q=-0.0 size=N/A time=00:01:41.85 bitrate=N/A speed=7.59x    frame= 2539 fps=182 q=-0.0 size=N/A time=00:01:45.89 bitrate=N/A speed=7.59x    frame= 2629 fps=182 q=-0.0 size=N/A time=00:01:49.65 bitrate=N/A speed=7.58x    frame= 2730 fps=182 q=-0.0 size=N/A time=00:01:53.86 bitrate=N/A speed= 7.6x    frame= 2821 fps=182 q=-0.0 size=N/A time=00:01:57.65 bitrate=N/A speed= 7.6x    frame= 2919 fps=182 q=-0.0 size=N/A time=00:02:01.74 bitrate=N/A speed= 7.6x    frame= 3006 fps=182 q=-0.0 size=N/A time=00:02:05.37 bitrate=N/A speed=7.58x    frame= 3100 fps=182 q=-0.0 size=N/A time=00:02:09.29 bitrate=N/A speed=7.59x    frame= 3215 fps=183 q=-0.0 size=N/A time=00:02:14.09 bitrate=N/A speed=7.64x    frame= 3301 fps=183 q=-0.0 size=N/A time=00:02:17.67 bitrate=N/A speed=7.62x    frame= 3401 fps=183 q=-0.0 size=N/A time=00:02:21.85 bitrate=N/A speed=7.63x    frame= 3502 fps=183 q=-0.0 size=N/A time=00:02:26.06 bitrate=N/A speed=7.64x    frame= 3599 fps=183 q=-0.0 size=N/A time=00:02:30.10 bitrate=N/A speed=7.64x    frame= 3692 fps=183 q=-0.0 size=N/A time=00:02:33.98 bitrate=N/A speed=7.64x    frame= 3793 fps=184 q=-0.0 size=N/A time=00:02:38.19 bitrate=N/A speed=7.65x    frame= 3889 fps=184 q=-0.0 size=N/A time=00:02:42.20 bitrate=N/A speed=7.66x    frame= 3988 fps=184 q=-0.0 size=N/A time=00:02:46.33 bitrate=N/A speed=7.67x    frame= 4085 fps=184 q=-0.0 size=N/A time=00:02:50.37 bitrate=N/A speed=7.67x    frame= 4185 fps=184 q=-0.0 size=N/A time=00:02:54.54 bitrate=N/A speed=7.68x    frame= 4287 fps=184 q=-0.0 size=N/A time=00:02:58.80 bitrate=N/A speed=7.68x    frame= 4388 fps=184 q=-0.0 size=N/A time=00:03:03.01 bitrate=N/A speed=7.69x    frame= 4487 fps=185 q=-0.0 size=N/A time=00:03:07.14 bitrate=N/A speed= 7.7x    frame= 4586 fps=185 q=-0.0 size=N/A time=00:03:11.27 bitrate=N/A speed=7.71x    frame= 4684 fps=185 q=-0.0 size=N/A time=00:03:15.36 bitrate=N/A speed=7.71x    frame= 4779 fps=185 q=-0.0 size=N/A time=00:03:19.32 bitrate=N/A speed=7.71x    frame= 4881 fps=185 q=-0.0 size=N/A time=00:03:23.57 bitrate=N/A speed=7.71x    frame= 4984 fps=185 q=-0.0 size=N/A time=00:03:27.87 bitrate=N/A speed=7.72x    frame= 5080 fps=185 q=-0.0 size=N/A time=00:03:31.87 bitrate=N/A speed=7.73x    frame= 5177 fps=185 q=-0.0 size=N/A time=00:03:35.92 bitrate=N/A speed=7.73x    frame= 5275 fps=185 q=-0.0 size=N/A time=00:03:40.01 bitrate=N/A speed=7.73x    frame= 5379 fps=186 q=-0.0 size=N/A time=00:03:44.34 bitrate=N/A speed=7.74x    frame= 5477 fps=186 q=-0.0 size=N/A time=00:03:48.43 bitrate=N/A speed=7.74x    frame= 5580 fps=186 q=-0.0 size=N/A time=00:03:52.73 bitrate=N/A speed=7.75x    frame= 5678 fps=186 q=-0.0 size=N/A time=00:03:56.81 bitrate=N/A speed=7.76x    frame= 5774 fps=186 q=-0.0 size=N/A time=00:04:00.82 bitrate=N/A speed=7.76x    frame= 5869 fps=186 q=-0.0 size=N/A time=00:04:04.78 bitrate=N/A speed=7.76x    frame= 5952 fps=186 q=-0.0 size=N/A time=00:04:08.24 bitrate=N/A speed=7.74x    frame= 6054 fps=186 q=-0.0 size=N/A time=00:04:12.50 bitrate=N/A speed=7.75x    frame= 6153 fps=186 q=-0.0 size=N/A time=00:04:16.63 bitrate=N/A speed=7.75x    frame= 6251 fps=186 q=-0.0 size=N/A time=00:04:20.71 bitrate=N/A speed=7.76x    frame= 6351 fps=186 q=-0.0 size=N/A time=00:04:24.88 bitrate=N/A speed=7.76x    frame= 6442 fps=186 q=-0.0 size=N/A time=00:04:28.68 bitrate=N/A speed=7.76x    frame= 6541 fps=186 q=-0.0 size=N/A time=00:04:32.81 bitrate=N/A speed=7.76x    frame= 6645 fps=186 q=-0.0 size=N/A time=00:04:37.15 bitrate=N/A speed=7.77x    frame= 6743 fps=186 q=-0.0 size=N/A time=00:04:41.23 bitrate=N/A speed=7.77x    frame= 6844 fps=186 q=-0.0 size=N/A time=00:04:45.45 bitrate=N/A speed=7.77x    frame= 6940 fps=186 q=-0.0 size=N/A time=00:04:49.45 bitrate=N/A speed=7.78x    frame= 7044 fps=187 q=-0.0 size=N/A time=00:04:53.79 bitrate=N/A speed=7.78x    frame= 7135 fps=186 q=-0.0 size=N/A time=00:04:57.58 bitrate=N/A speed=7.78x    frame= 7242 fps=187 q=-0.0 size=N/A time=00:05:02.05 bitrate=N/A speed=7.79x    frame= 7337 fps=187 q=-0.0 size=N/A time=00:05:06.01 bitrate=N/A speed=7.79x    frame= 7440 fps=187 q=-0.0 size=N/A time=00:05:10.31 bitrate=N/A speed=7.79x    frame= 7539 fps=187 q=-0.0 size=N/A time=00:05:14.43 bitrate=N/A speed= 7.8x    frame= 7636 fps=187 q=-0.0 size=N/A time=00:05:18.48 bitrate=N/A speed= 7.8x    frame= 7740 fps=187 q=-0.0 size=N/A time=00:05:22.82 bitrate=N/A speed= 7.8x    frame= 7840 fps=187 q=-0.0 size=N/A time=00:05:26.99 bitrate=N/A speed=7.81x    frame= 7942 fps=187 q=-0.0 size=N/A time=00:05:31.24 bitrate=N/A speed=7.81x    frame= 8042 fps=187 q=-0.0 size=N/A time=00:05:35.41 bitrate=N/A speed=7.82x    frame= 8145 fps=188 q=-0.0 size=N/A time=00:05:39.71 bitrate=N/A speed=7.82x    frame= 8248 fps=188 q=-0.0 size=N/A time=00:05:44.01 bitrate=N/A speed=7.83x    frame= 8346 fps=188 q=-0.0 size=N/A time=00:05:48.09 bitrate=N/A speed=7.83x    frame= 8446 fps=188 q=-0.0 size=N/A time=00:05:52.26 bitrate=N/A speed=7.83x    frame= 8545 fps=188 q=-0.0 size=N/A time=00:05:56.39 bitrate=N/A speed=7.83x    frame= 8647 fps=188 q=-0.0 size=N/A time=00:06:00.65 bitrate=N/A speed=7.84x    frame= 8737 fps=188 q=-0.0 size=N/A time=00:06:04.40 bitrate=N/A speed=7.83x    frame= 8838 fps=188 q=-0.0 size=N/A time=00:06:08.61 bitrate=N/A speed=7.83x    frame= 8934 fps=188 q=-0.0 size=N/A time=00:06:12.62 bitrate=N/A speed=7.83x    frame= 9029 fps=188 q=-0.0 size=N/A time=00:06:16.58 bitrate=N/A speed=7.83x    frame= 9118 fps=188 q=-0.0 size=N/A time=00:06:20.29 bitrate=N/A speed=7.82x    frame= 9219 fps=188 q=-0.0 size=N/A time=00:06:24.50 bitrate=N/A speed=7.83x    frame= 9313 fps=188 q=-0.0 size=N/A time=00:06:28.42 bitrate=N/A speed=7.82x    frame= 9412 fps=188 q=-0.0 size=N/A time=00:06:32.55 bitrate=N/A speed=7.83x    frame= 9512 fps=188 q=-0.0 size=N/A time=00:06:36.72 bitrate=N/A speed=7.83x    frame= 9606 fps=188 q=-0.0 size=N/A time=00:06:40.65 bitrate=N/A speed=7.83x    frame= 9704 fps=188 q=-0.0 size=N/A time=00:06:44.73 bitrate=N/A speed=7.83x    frame= 9798 fps=188 q=-0.0 size=N/A time=00:06:48.65 bitrate=N/A speed=7.83x    frame= 9897 fps=188 q=-0.0 size=N/A time=00:06:52.78 bitrate=N/A speed=7.83x    frame= 9984 fps=188 q=-0.0 size=N/A time=00:06:56.41 bitrate=N/A speed=7.82x    frame=10078 fps=187 q=-0.0 size=N/A time=00:07:00.33 bitrate=N/A speed=7.82x    frame=10184 fps=188 q=-0.0 size=N/A time=00:07:04.75 bitrate=N/A speed=7.83x    frame=10283 fps=188 q=-0.0 size=N/A time=00:07:08.88 bitrate=N/A speed=7.83x    frame=10375 fps=188 q=-0.0 size=N/A time=00:07:12.72 bitrate=N/A speed=7.82x    frame=10475 fps=188 q=-0.0 size=N/A time=00:07:16.89 bitrate=N/A speed=7.83x    frame=10565 fps=188 q=-0.0 size=N/A time=00:07:20.64 bitrate=N/A speed=7.82x    frame=10659 fps=187 q=-0.0 size=N/A time=00:07:24.56 bitrate=N/A speed=7.82x    frame=10762 fps=188 q=-0.0 size=N/A time=00:07:28.86 bitrate=N/A speed=7.82x    frame=10853 fps=187 q=-0.0 size=N/A time=00:07:32.66 bitrate=N/A speed=7.82x    frame=10951 fps=188 q=-0.0 size=N/A time=00:07:36.74 bitrate=N/A speed=7.82x    frame=11052 fps=188 q=-0.0 size=N/A time=00:07:40.96 bitrate=N/A speed=7.82x    frame=11149 fps=188 q=-0.0 size=N/A time=00:07:45.00 bitrate=N/A speed=7.82x    frame=11250 fps=188 q=-0.0 size=N/A time=00:07:49.21 bitrate=N/A speed=7.83x    frame=11344 fps=188 q=-0.0 size=N/A time=00:07:53.13 bitrate=N/A speed=7.82x    frame=11449 fps=188 q=-0.0 size=N/A time=00:07:57.51 bitrate=N/A speed=7.83x    frame=11552 fps=188 q=-0.0 size=N/A time=00:08:01.81 bitrate=N/A speed=7.83x    frame=11650 fps=188 q=-0.0 size=N/A time=00:08:05.90 bitrate=N/A speed=7.84x    frame=11743 fps=188 q=-0.0 size=N/A time=00:08:09.78 bitrate=N/A speed=7.83x    frame=11853 fps=188 q=-0.0 size=N/A time=00:08:14.36 bitrate=N/A speed=7.84x    frame=11952 fps=188 q=-0.0 size=N/A time=00:08:18.49 bitrate=N/A speed=7.84x    frame=12044 fps=188 q=-0.0 size=N/A time=00:08:22.33 bitrate=N/A speed=7.84x    frame=12153 fps=188 q=-0.0 size=N/A time=00:08:26.88 bitrate=N/A speed=7.85x    frame=12256 fps=188 q=-0.0 size=N/A time=00:08:31.17 bitrate=N/A speed=7.85x    frame=12356 fps=188 q=-0.0 size=N/A time=00:08:35.34 bitrate=N/A speed=7.85x    frame=12454 fps=188 q=-0.0 size=N/A time=00:08:39.43 bitrate=N/A speed=7.85x    frame=12544 fps=188 q=-0.0 size=N/A time=00:08:43.18 bitrate=N/A speed=7.85x    frame=12657 fps=188 q=-0.0 size=N/A time=00:08:47.90 bitrate=N/A speed=7.86x    frame=12749 fps=188 q=-0.0 size=N/A time=00:08:51.73 bitrate=N/A speed=7.86x    frame=12856 fps=188 q=-0.0 size=N/A time=00:08:56.20 bitrate=N/A speed=7.86x    frame=12953 fps=188 q=-0.0 size=N/A time=00:09:00.24 bitrate=N/A speed=7.86x    frame=13051 fps=188 q=-0.0 size=N/A time=00:09:04.33 bitrate=N/A speed=7.86x    frame=13145 fps=188 q=-0.0 size=N/A time=00:09:08.25 bitrate=N/A speed=7.86x    frame=13253 fps=189 q=-0.0 size=N/A time=00:09:12.76 bitrate=N/A speed=7.87x    frame=13356 fps=189 q=-0.0 size=N/A time=00:09:17.05 bitrate=N/A speed=7.87x    frame=13455 fps=189 q=-0.0 size=N/A time=00:09:21.18 bitrate=N/A speed=7.87x    frame=13549 fps=189 q=-0.0 size=N/A time=00:09:25.10 bitrate=N/A speed=7.87x    frame=13648 fps=189 q=-0.0 size=N/A time=00:09:29.23 bitrate=N/A speed=7.87x    frame=13749 fps=189 q=-0.0 size=N/A time=00:09:33.44 bitrate=N/A speed=7.87x    frame=13847 fps=189 q=-0.0 size=N/A time=00:09:37.53 bitrate=N/A speed=7.87x    frame=13957 fps=189 q=-0.0 size=N/A time=00:09:42.12 bitrate=N/A speed=7.88x    frame=14052 fps=189 q=-0.0 size=N/A time=00:09:46.08 bitrate=N/A speed=7.88x    frame=14156 fps=189 q=-0.0 size=N/A time=00:09:50.42 bitrate=N/A speed=7.88x    frame=14258 fps=189 q=-0.0 size=N/A time=00:09:54.67 bitrate=N/A speed=7.88x    frame=14357 fps=189 q=-0.0 size=N/A time=00:09:58.80 bitrate=N/A speed=7.88x    frame=14460 fps=189 q=-0.0 size=N/A time=00:10:03.10 bitrate=N/A speed=7.89x    frame=14560 fps=189 q=-0.0 size=N/A time=00:10:07.27 bitrate=N/A speed=7.89x    frame=14659 fps=189 q=-0.0 size=N/A time=00:10:11.40 bitrate=N/A speed=7.89x    frame=14764 fps=189 q=-0.0 size=N/A time=00:10:15.78 bitrate=N/A speed=7.89x    frame=14864 fps=189 q=-0.0 size=N/A time=00:10:19.95 bitrate=N/A speed=7.89x    frame=14953 fps=189 q=-0.0 size=N/A time=00:10:23.66 bitrate=N/A speed=7.89x    frame=15064 fps=189 q=-0.0 size=N/A time=00:10:28.29 bitrate=N/A speed= 7.9x    frame=15167 fps=189 q=-0.0 size=N/A time=00:10:32.59 bitrate=N/A speed= 7.9x    frame=15263 fps=189 q=-0.0 size=N/A time=00:10:36.59 bitrate=N/A speed= 7.9x    frame=15363 fps=189 q=-0.0 size=N/A time=00:10:40.76 bitrate=N/A speed= 7.9x    frame=15463 fps=189 q=-0.0 size=N/A time=00:10:44.93 bitrate=N/A speed= 7.9x    frame=15561 fps=189 q=-0.0 size=N/A time=00:10:49.02 bitrate=N/A speed= 7.9x    frame=15663 fps=189 q=-0.0 size=N/A time=00:10:53.27 bitrate=N/A speed= 7.9x    frame=15761 fps=189 q=-0.0 size=N/A time=00:10:57.36 bitrate=N/A speed= 7.9x    frame=15857 fps=189 q=-0.0 size=N/A time=00:11:01.36 bitrate=N/A speed= 7.9x    frame=15966 fps=190 q=-0.0 size=N/A time=00:11:05.91 bitrate=N/A speed=7.91x    frame=16056 fps=190 q=-0.0 size=N/A time=00:11:09.66 bitrate=N/A speed= 7.9x    frame=16170 fps=190 q=-0.0 size=N/A time=00:11:14.42 bitrate=N/A speed=7.91x    frame=16267 fps=190 q=-0.0 size=N/A time=00:11:18.46 bitrate=N/A speed=7.91x    frame=16370 fps=190 q=-0.0 size=N/A time=00:11:22.76 bitrate=N/A speed=7.91x    frame=16455 fps=190 q=-0.0 size=N/A time=00:11:26.31 bitrate=N/A speed=7.91x    frame=16570 fps=190 q=-0.0 size=N/A time=00:11:31.10 bitrate=N/A speed=7.92x    frame=16668 fps=190 q=-0.0 size=N/A time=00:11:35.19 bitrate=N/A speed=7.92x    frame=16772 fps=190 q=-0.0 size=N/A time=00:11:39.53 bitrate=N/A speed=7.92x    frame=16871 fps=190 q=-0.0 size=N/A time=00:11:43.66 bitrate=N/A speed=7.92x    frame=16962 fps=190 q=-0.0 size=N/A time=00:11:47.45 bitrate=N/A speed=7.92x    frame=17074 fps=190 q=-0.0 size=N/A time=00:11:52.12 bitrate=N/A speed=7.92x    frame=17172 fps=190 q=-0.0 size=N/A time=00:11:56.21 bitrate=N/A speed=7.92x    frame=17274 fps=190 q=-0.0 size=N/A time=00:12:00.46 bitrate=N/A speed=7.92x    frame=17373 fps=190 q=-0.0 size=N/A time=00:12:04.59 bitrate=N/A speed=7.93x    frame=17475 fps=190 q=-0.0 size=N/A time=00:12:08.85 bitrate=N/A speed=7.93x    frame=17573 fps=190 q=-0.0 size=N/A time=00:12:12.94 bitrate=N/A speed=7.93x    frame=17674 fps=190 q=-0.0 size=N/A time=00:12:17.15 bitrate=N/A speed=7.93x    frame=17777 fps=190 q=-0.0 size=N/A time=00:12:21.44 bitrate=N/A speed=7.93x    frame=17872 fps=190 q=-0.0 size=N/A time=00:12:25.41 bitrate=N/A speed=7.93x    frame=17977 fps=190 q=-0.0 size=N/A time=00:12:29.79 bitrate=N/A speed=7.93x    frame=18074 fps=190 q=-0.0 size=N/A time=00:12:33.83 bitrate=N/A speed=7.93x    frame=18167 fps=190 q=-0.0 size=N/A time=00:12:37.71 bitrate=N/A speed=7.93x    frame=18259 fps=190 q=-0.0 size=N/A time=00:12:41.55 bitrate=N/A speed=7.93x    frame=18356 fps=190 q=-0.0 size=N/A time=00:12:45.59 bitrate=N/A speed=7.93x    frame=18447 fps=190 q=-0.0 size=N/A time=00:12:49.39 bitrate=N/A speed=7.92x    frame=18548 fps=190 q=-0.0 size=N/A time=00:12:53.60 bitrate=N/A speed=7.93x    frame=18635 fps=190 q=-0.0 size=N/A time=00:12:57.23 bitrate=N/A speed=7.92x    frame=18741 fps=190 q=-0.0 size=N/A time=00:13:01.65 bitrate=N/A speed=7.92x    frame=18839 fps=190 q=-0.0 size=N/A time=00:13:05.74 bitrate=N/A speed=7.92x    frame=18920 fps=190 q=-0.0 size=N/A time=00:13:09.12 bitrate=N/A speed=7.92x    frame=19030 fps=190 q=-0.0 size=N/A time=00:13:13.70 bitrate=N/A speed=7.92x    frame=19133 fps=190 q=-0.0 size=N/A time=00:13:18.00 bitrate=N/A speed=7.92x    frame=19230 fps=190 q=-0.0 size=N/A time=00:13:22.05 bitrate=N/A speed=7.92x    frame=19320 fps=190 q=-0.0 size=N/A time=00:13:25.80 bitrate=N/A speed=7.92x    frame=19436 fps=190 q=-0.0 size=N/A time=00:13:30.64 bitrate=N/A speed=7.93x    frame=19531 fps=190 q=-0.0 size=N/A time=00:13:34.60 bitrate=N/A speed=7.93x    frame=19620 fps=190 q=-0.0 size=N/A time=00:13:38.31 bitrate=N/A speed=7.92x    frame=19734 fps=190 q=-0.0 size=N/A time=00:13:43.07 bitrate=N/A speed=7.93x    frame=19837 fps=190 q=-0.0 size=N/A time=00:13:47.36 bitrate=N/A speed=7.93x    frame=19933 fps=190 q=-0.0 size=N/A time=00:13:51.37 bitrate=N/A speed=7.93x    frame=20030 fps=190 q=-0.0 size=N/A time=00:13:55.41 bitrate=N/A speed=7.93x    frame=20132 fps=190 q=-0.0 size=N/A time=00:13:59.67 bitrate=N/A speed=7.93x    frame=20228 fps=190 q=-0.0 size=N/A time=00:14:03.67 bitrate=N/A speed=7.93x    frame=20329 fps=190 q=-0.0 size=N/A time=00:14:07.88 bitrate=N/A speed=7.93x    frame=20431 fps=190 q=-0.0 size=N/A time=00:14:12.14 bitrate=N/A speed=7.93x    frame=20525 fps=190 q=-0.0 size=N/A time=00:14:16.06 bitrate=N/A speed=7.93x    frame=20629 fps=190 q=-0.0 size=N/A time=00:14:20.40 bitrate=N/A speed=7.93x    frame=20723 fps=190 q=-0.0 size=N/A time=00:14:24.32 bitrate=N/A speed=7.93x    frame=20831 fps=190 q=-0.0 size=N/A time=00:14:28.82 bitrate=N/A speed=7.94x    frame=20925 fps=190 q=-0.0 size=N/A time=00:14:32.74 bitrate=N/A speed=7.93x    frame=21029 fps=190 q=-0.0 size=N/A time=00:14:37.08 bitrate=N/A speed=7.94x    frame=21128 fps=190 q=-0.0 size=N/A time=00:14:41.21 bitrate=N/A speed=7.94x    frame=21225 fps=190 q=-0.0 size=N/A time=00:14:45.25 bitrate=N/A speed=7.94x    frame=21324 fps=190 q=-0.0 size=N/A time=00:14:49.38 bitrate=N/A speed=7.94x    frame=21419 fps=190 q=-0.0 size=N/A time=00:14:53.35 bitrate=N/A speed=7.94x    frame=21520 fps=190 q=-0.0 size=N/A time=00:14:57.56 bitrate=N/A speed=7.94x    frame=21602 fps=190 q=-0.0 size=N/A time=00:15:00.98 bitrate=N/A speed=7.93x    frame=21708 fps=190 q=-0.0 size=N/A time=00:15:05.40 bitrate=N/A speed=7.93x    frame=21807 fps=190 q=-0.0 size=N/A time=00:15:09.53 bitrate=N/A speed=7.93x    frame=21907 fps=190 q=-0.0 size=N/A time=00:15:13.70 bitrate=N/A speed=7.93x    frame=21995 fps=190 q=-0.0 size=N/A time=00:15:17.37 bitrate=N/A speed=7.93x    frame=22098 fps=190 q=-0.0 size=N/A time=00:15:21.67 bitrate=N/A speed=7.93x    frame=22191 fps=190 q=-0.0 size=N/A time=00:15:25.54 bitrate=N/A speed=7.93x    frame=22289 fps=190 q=-0.0 size=N/A time=00:15:29.63 bitrate=N/A speed=7.93x    frame=22381 fps=190 q=-0.0 size=N/A time=00:15:33.47 bitrate=N/A speed=7.93x    frame=22476 fps=190 q=-0.0 size=N/A time=00:15:37.43 bitrate=N/A speed=7.93x    frame=22566 fps=190 q=-0.0 size=N/A time=00:15:41.19 bitrate=N/A speed=7.92x    frame=22656 fps=190 q=-0.0 size=N/A time=00:15:44.94 bitrate=N/A speed=7.92x    frame=22765 fps=190 q=-0.0 size=N/A time=00:15:49.49 bitrate=N/A speed=7.93x    frame=22859 fps=190 q=-0.0 size=N/A time=00:15:53.41 bitrate=N/A speed=7.93x    frame=22955 fps=190 q=-0.0 size=N/A time=00:15:57.41 bitrate=N/A speed=7.92x    frame=23049 fps=190 q=-0.0 size=N/A time=00:16:01.33 bitrate=N/A speed=7.92x    frame=23142 fps=190 q=-0.0 size=N/A time=00:16:05.21 bitrate=N/A speed=7.92x    frame=23249 fps=190 q=-0.0 size=N/A time=00:16:09.67 bitrate=N/A speed=7.92x    frame=23343 fps=190 q=-0.0 size=N/A time=00:16:13.59 bitrate=N/A speed=7.92x    frame=23442 fps=190 q=-0.0 size=N/A time=00:16:17.72 bitrate=N/A speed=7.92x    frame=23548 fps=190 q=-0.0 size=N/A time=00:16:22.14 bitrate=N/A speed=7.93x    frame=23650 fps=190 q=-0.0 size=N/A time=00:16:26.40 bitrate=N/A speed=7.93x    frame=23746 fps=190 q=-0.0 size=N/A time=00:16:30.40 bitrate=N/A speed=7.93x    frame=23845 fps=190 q=-0.0 size=N/A time=00:16:34.53 bitrate=N/A speed=7.93x    frame=23933 fps=190 q=-0.0 size=N/A time=00:16:38.20 bitrate=N/A speed=7.92x    frame=24034 fps=190 q=-0.0 size=N/A time=00:16:42.41 bitrate=N/A speed=7.92x    frame=24127 fps=190 q=-0.0 size=N/A time=00:16:46.29 bitrate=N/A speed=7.92x    frame=24222 fps=190 q=-0.0 size=N/A time=00:16:50.25 bitrate=N/A speed=7.92x    frame=24315 fps=190 q=-0.0 size=N/A time=00:16:54.13 bitrate=N/A speed=7.92x    frame=24412 fps=190 q=-0.0 size=N/A time=00:16:58.18 bitrate=N/A speed=7.92x    frame=24507 fps=190 q=-0.0 size=N/A time=00:17:02.14 bitrate=N/A speed=7.92x    frame=24603 fps=190 q=-0.0 size=N/A time=00:17:06.15 bitrate=N/A speed=7.92x    frame=24699 fps=190 q=-0.0 size=N/A time=00:17:10.15 bitrate=N/A speed=7.92x    frame=24787 fps=190 q=-0.0 size=N/A time=00:17:13.82 bitrate=N/A speed=7.91x    frame=24888 fps=190 q=-0.0 size=N/A time=00:17:18.03 bitrate=N/A speed=7.92x    frame=24981 fps=190 q=-0.0 size=N/A time=00:17:21.91 bitrate=N/A speed=7.91x    frame=25074 fps=190 q=-0.0 size=N/A time=00:17:25.79 bitrate=N/A speed=7.91x    frame=25167 fps=190 q=-0.0 size=N/A time=00:17:29.67 bitrate=N/A speed=7.91x    frame=25265 fps=190 q=-0.0 size=N/A time=00:17:33.76 bitrate=N/A speed=7.91x    frame=25360 fps=190 q=-0.0 size=N/A time=00:17:37.72 bitrate=N/A speed=7.91x    frame=25453 fps=190 q=-0.0 size=N/A time=00:17:41.60 bitrate=N/A speed=7.91x    frame=25554 fps=190 q=-0.0 size=N/A time=00:17:45.81 bitrate=N/A speed=7.91x    frame=25650 fps=190 q=-0.0 size=N/A time=00:17:49.81 bitrate=N/A speed=7.91x    frame=25744 fps=190 q=-0.0 size=N/A time=00:17:53.73 bitrate=N/A speed=7.91x    frame=25839 fps=190 q=-0.0 size=N/A time=00:17:57.70 bitrate=N/A speed=7.91x    frame=25941 fps=190 q=-0.0 size=N/A time=00:18:01.95 bitrate=N/A speed=7.91x    frame=26041 fps=190 q=-0.0 size=N/A time=00:18:06.12 bitrate=N/A speed=7.91x    frame=26135 fps=190 q=-0.0 size=N/A time=00:18:10.04 bitrate=N/A speed=7.91x    frame=26231 fps=190 q=-0.0 size=N/A time=00:18:14.05 bitrate=N/A speed=7.91x    frame=26328 fps=190 q=-0.0 size=N/A time=00:18:18.09 bitrate=N/A speed=7.91x    frame=26419 fps=190 q=-0.0 size=N/A time=00:18:21.89 bitrate=N/A speed= 7.9x    frame=26519 fps=190 q=-0.0 size=N/A time=00:18:26.06 bitrate=N/A speed= 7.9x    frame=26613 fps=190 q=-0.0 size=N/A time=00:18:29.98 bitrate=N/A speed= 7.9x    frame=26713 fps=190 q=-0.0 size=N/A time=00:18:34.15 bitrate=N/A speed= 7.9x    frame=26808 fps=190 q=-0.0 size=N/A time=00:18:38.11 bitrate=N/A speed= 7.9x    frame=26897 fps=189 q=-0.0 size=N/A time=00:18:41.82 bitrate=N/A speed= 7.9x    frame=26999 fps=189 q=-0.0 size=N/A time=00:18:46.08 bitrate=N/A speed= 7.9x    frame=27097 fps=189 q=-0.0 size=N/A time=00:18:50.17 bitrate=N/A speed= 7.9x    frame=27194 fps=189 q=-0.0 size=N/A time=00:18:54.21 bitrate=N/A speed= 7.9x    frame=27288 fps=189 q=-0.0 size=N/A time=00:18:58.13 bitrate=N/A speed= 7.9x    frame=27388 fps=189 q=-0.0 size=N/A time=00:19:02.30 bitrate=N/A speed= 7.9x    frame=27485 fps=189 q=-0.0 size=N/A time=00:19:06.35 bitrate=N/A speed= 7.9x    frame=27581 fps=189 q=-0.0 size=N/A time=00:19:10.35 bitrate=N/A speed= 7.9x    frame=27677 fps=189 q=-0.0 size=N/A time=00:19:14.36 bitrate=N/A speed= 7.9x    frame=27778 fps=189 q=-0.0 size=N/A time=00:19:18.57 bitrate=N/A speed= 7.9x    frame=27879 fps=189 q=-0.0 size=N/A time=00:19:22.78 bitrate=N/A speed= 7.9x    frame=27975 fps=189 q=-0.0 size=N/A time=00:19:26.79 bitrate=N/A speed= 7.9x    frame=28081 fps=190 q=-0.0 size=N/A time=00:19:31.21 bitrate=N/A speed= 7.9x    frame=28184 fps=190 q=-0.0 size=N/A time=00:19:35.50 bitrate=N/A speed=7.91x    frame=28286 fps=190 q=-0.0 size=N/A time=00:19:39.76 bitrate=N/A speed=7.91x    frame=28384 fps=190 q=-0.0 size=N/A time=00:19:43.84 bitrate=N/A speed=7.91x    frame=28477 fps=190 q=-0.0 size=N/A time=00:19:47.72 bitrate=N/A speed=7.91x    frame=28572 fps=190 q=-0.0 size=N/A time=00:19:51.69 bitrate=N/A speed= 7.9x    frame=28670 fps=190 q=-0.0 size=N/A time=00:19:55.77 bitrate=N/A speed= 7.9x    frame=28763 fps=189 q=-0.0 size=N/A time=00:19:59.65 bitrate=N/A speed= 7.9x    frame=28859 fps=189 q=-0.0 size=N/A time=00:20:03.66 bitrate=N/A speed= 7.9x    frame=28949 fps=189 q=-0.0 size=N/A time=00:20:07.41 bitrate=N/A speed= 7.9x    frame=29056 fps=189 q=-0.0 size=N/A time=00:20:11.87 bitrate=N/A speed= 7.9x    frame=29153 fps=189 q=-0.0 size=N/A time=00:20:15.92 bitrate=N/A speed= 7.9x    frame=29255 fps=190 q=-0.0 size=N/A time=00:20:20.17 bitrate=N/A speed= 7.9x    frame=29342 fps=189 q=-0.0 size=N/A time=00:20:23.80 bitrate=N/A speed= 7.9x    frame=29444 fps=189 q=-0.0 size=N/A time=00:20:28.06 bitrate=N/A speed= 7.9x    frame=29531 fps=189 q=-0.0 size=N/A time=00:20:31.68 bitrate=N/A speed= 7.9x    frame=29621 fps=189 q=-0.0 size=N/A time=00:20:35.44 bitrate=N/A speed= 7.9x    frame=29730 fps=189 q=-0.0 size=N/A time=00:20:39.98 bitrate=N/A speed= 7.9x    frame=29828 fps=189 q=-0.0 size=N/A time=00:20:44.07 bitrate=N/A speed= 7.9x    frame=29924 fps=189 q=-0.0 size=N/A time=00:20:48.08 bitrate=N/A speed= 7.9x    frame=30023 fps=189 q=-0.0 size=N/A time=00:20:52.20 bitrate=N/A speed= 7.9x    frame=30114 fps=189 q=-0.0 size=N/A time=00:20:56.00 bitrate=N/A speed= 7.9x    frame=30211 fps=189 q=-0.0 size=N/A time=00:21:00.05 bitrate=N/A speed= 7.9x    frame=30297 fps=189 q=-0.0 size=N/A time=00:21:03.63 bitrate=N/A speed= 7.9x    frame=30398 fps=189 q=-0.0 size=N/A time=00:21:07.84 bitrate=N/A speed= 7.9x    frame=30480 fps=189 q=-0.0 size=N/A time=00:21:11.27 bitrate=N/A speed=7.89x    frame=30584 fps=189 q=-0.0 size=N/A time=00:21:15.60 bitrate=N/A speed=7.89x    frame=30674 fps=189 q=-0.0 size=N/A time=00:21:19.36 bitrate=N/A speed=7.89x    frame=30766 fps=189 q=-0.0 size=N/A time=00:21:23.19 bitrate=N/A speed=7.89x    frame=30865 fps=189 q=-0.0 size=N/A time=00:21:27.32 bitrate=N/A speed=7.89x    frame=30958 fps=189 q=-0.0 size=N/A time=00:21:31.20 bitrate=N/A speed=7.89x    frame=31055 fps=189 q=-0.0 size=N/A time=00:21:35.25 bitrate=N/A speed=7.89x    frame=31145 fps=189 q=-0.0 size=N/A time=00:21:39.00 bitrate=N/A speed=7.89x    frame=31243 fps=189 q=-0.0 size=N/A time=00:21:43.09 bitrate=N/A speed=7.89x    frame=31334 fps=189 q=-0.0 size=N/A time=00:21:46.88 bitrate=N/A speed=7.89x    frame=31430 fps=189 q=-0.0 size=N/A time=00:21:50.89 bitrate=N/A speed=7.89x    frame=31522 fps=189 q=-0.0 size=N/A time=00:21:54.73 bitrate=N/A speed=7.88x    frame=31616 fps=189 q=-0.0 size=N/A time=00:21:58.65 bitrate=N/A speed=7.88x    frame=31708 fps=189 q=-0.0 size=N/A time=00:22:02.48 bitrate=N/A speed=7.88x    frame=31796 fps=189 q=-0.0 size=N/A time=00:22:06.15 bitrate=N/A speed=7.88x    frame=31891 fps=189 q=-0.0 size=N/A time=00:22:10.12 bitrate=N/A speed=7.88x    frame=31971 fps=189 q=-0.0 size=N/A time=00:22:13.45 bitrate=N/A speed=7.88x    frame=32063 fps=189 q=-0.0 size=N/A time=00:22:17.29 bitrate=N/A speed=7.87x    frame=32170 fps=189 q=-0.0 size=N/A time=00:22:21.75 bitrate=N/A speed=7.88x    frame=32262 fps=189 q=-0.0 size=N/A time=00:22:25.59 bitrate=N/A speed=7.87x    frame=32353 fps=189 q=-0.0 size=N/A time=00:22:29.38 bitrate=N/A speed=7.87x    frame=32457 fps=189 q=-0.0 size=N/A time=00:22:33.72 bitrate=N/A speed=7.88x    frame=32559 fps=189 q=-0.0 size=N/A time=00:22:37.98 bitrate=N/A speed=7.88x    frame=32649 fps=189 q=-0.0 size=N/A time=00:22:41.73 bitrate=N/A speed=7.87x    frame=32757 fps=189 q=-0.0 size=N/A time=00:22:46.23 bitrate=N/A speed=7.88x    frame=32861 fps=189 q=-0.0 size=N/A time=00:22:50.57 bitrate=N/A speed=7.88x    frame=32963 fps=189 q=-0.0 size=N/A time=00:22:54.83 bitrate=N/A speed=7.88x    frame=33062 fps=189 q=-0.0 size=N/A time=00:22:58.96 bitrate=N/A speed=7.88x    [Parsed_ssim_10 @ 000002036a1fc380] SSIM Y:0.995135 (23.128925) U:0.993967 (22.194549) V:0.993718 (22.019237) All:0.994704 (22.760526)
[out#0/null @ 000002035de14ec0] video:14218KiB audio:258988KiB subtitle:0KiB other streams:0KiB global headers:0KiB muxing overhead: unknown
frame=33089 fps=189 q=-0.0 Lsize=N/A time=00:23:00.08 bitrate=N/A speed=7.88x    
